<svg width="64" height="64" viewBox="0 0 64 64" fill="none" xmlns="http://www.w3.org/2000/svg">
<g clip-path="url(#clip0_3100_21843)">
<path d="M52.625 12.9804H32.9375V8.07841C32.9375 7.8184 32.8387 7.56903 32.6629 7.38517C32.4871 7.20131 32.2486 7.09802 32 7.09802C31.7514 7.09802 31.5129 7.20131 31.3371 7.38517C31.1613 7.56903 31.0625 7.8184 31.0625 8.07841V12.9804H11.375C10.6293 12.9812 9.91442 13.2914 9.38715 13.8428C8.85988 14.3942 8.56331 15.1418 8.5625 15.9216V45.3333C8.56331 46.1131 8.85988 46.8607 9.38715 47.4121C9.91442 47.9635 10.6293 48.2737 11.375 48.2745H22.5495L16.268 56.4855C16.1896 56.5859 16.1309 56.7015 16.0954 56.8257C16.0599 56.9499 16.0483 57.0803 16.0613 57.2092C16.0744 57.3381 16.1117 57.4631 16.1712 57.5768C16.2307 57.6905 16.3111 57.7908 16.4079 57.8718C16.5047 57.9528 16.6159 58.0129 16.7351 58.0487C16.8542 58.0844 16.979 58.0951 17.1021 58.0801C17.2253 58.0651 17.3443 58.0247 17.4524 57.9613C17.5605 57.8978 17.6556 57.8126 17.732 57.7105L24.9507 48.2745H39.0495L46.268 57.7105C46.4244 57.9104 46.6498 58.0376 46.8953 58.0647C47.1408 58.0918 47.3866 58.0165 47.5794 57.8552C47.7722 57.6939 47.8963 57.4596 47.9249 57.2032C47.9534 56.9467 47.8841 56.6888 47.732 56.4855L41.4507 48.2745H52.625C53.3707 48.2737 54.0856 47.9635 54.6128 47.4121C55.1401 46.8607 55.4367 46.1131 55.4375 45.3333V15.9216C55.4367 15.1418 55.1401 14.3942 54.6128 13.8428C54.0856 13.2914 53.3707 12.9812 52.625 12.9804ZM53.5625 45.3333C53.5623 45.5933 53.4634 45.8425 53.2876 46.0263C53.1119 46.2101 52.8736 46.3135 52.625 46.3137H11.375C11.1264 46.3135 10.8881 46.2101 10.7124 46.0263C10.5366 45.8425 10.4377 45.5933 10.4375 45.3333V15.9216C10.4377 15.6616 10.5366 15.4124 10.7124 15.2286C10.8881 15.0448 11.1264 14.9414 11.375 14.9412H52.625C52.8736 14.9414 53.1119 15.0448 53.2876 15.2286C53.4634 15.4124 53.5623 15.6616 53.5625 15.9216V45.3333ZM25.4375 31.6078V37.4902C25.4375 37.7502 25.3387 37.9996 25.1629 38.1834C24.9871 38.3673 24.7486 38.4706 24.5 38.4706C24.2514 38.4706 24.0129 38.3673 23.8371 38.1834C23.6613 37.9996 23.5625 37.7502 23.5625 37.4902V31.6078C23.5625 31.3478 23.6613 31.0984 23.8371 30.9146C24.0129 30.7307 24.2514 30.6274 24.5 30.6274C24.7486 30.6274 24.9871 30.7307 25.1629 30.9146C25.3387 31.0984 25.4375 31.3478 25.4375 31.6078ZM32.9375 27.6863V37.4902C32.9375 37.7502 32.8387 37.9996 32.6629 38.1834C32.4871 38.3673 32.2486 38.4706 32 38.4706C31.7514 38.4706 31.5129 38.3673 31.3371 38.1834C31.1613 37.9996 31.0625 37.7502 31.0625 37.4902V27.6863C31.0625 27.4262 31.1613 27.1769 31.3371 26.993C31.5129 26.8092 31.7514 26.7059 32 26.7059C32.2486 26.7059 32.4871 26.8092 32.6629 26.993C32.8387 27.1769 32.9375 27.4262 32.9375 27.6863ZM40.4375 23.7647V37.4902C40.4375 37.7502 40.3387 37.9996 40.1629 38.1834C39.9871 38.3673 39.7486 38.4706 39.5 38.4706C39.2514 38.4706 39.0129 38.3673 38.8371 38.1834C38.6613 37.9996 38.5625 37.7502 38.5625 37.4902V23.7647C38.5625 23.5047 38.6613 23.2553 38.8371 23.0714C39.0129 22.8876 39.2514 22.7843 39.5 22.7843C39.7486 22.7843 39.9871 22.8876 40.1629 23.0714C40.3387 23.2553 40.4375 23.5047 40.4375 23.7647Z" fill="#00ADBB"/>
</g>
<defs>
<clipPath id="clip0_3100_21843">
<rect width="48" height="53.3333" fill="white" transform="translate(8 5.33337)"/>
</clipPath>
</defs>
</svg>
