<svg width="64" height="64" viewBox="0 0 64 64" fill="none" xmlns="http://www.w3.org/2000/svg">
<g clip-path="url(#clip0_3100_21854)">
<path d="M48.5111 58.6667H15.4902C14.1978 58.6667 13.1465 57.6154 13.1465 56.323V28.6929C13.1465 28.2614 13.4963 27.9116 13.9277 27.9116C14.3592 27.9116 14.709 28.2614 14.709 28.6929V56.323C14.709 56.7538 15.0594 57.1042 15.4902 57.1042H48.5111C48.9419 57.1042 49.2923 56.7538 49.2923 56.323V45.724C49.2923 45.2925 49.6421 44.9427 50.0736 44.9427C50.505 44.9427 50.8548 45.2925 50.8548 45.724V56.323C50.8548 57.6154 49.8035 58.6667 48.5111 58.6667ZM34.8416 44.269C34.3895 44.269 33.9464 44.0921 33.6126 43.7583L29.2296 39.3753H24.1041C22.9244 39.3753 21.8917 38.6227 21.5341 37.5029C21.3105 36.8027 21.1311 36.0399 21.0009 35.2357C20.9319 34.8097 21.2214 34.4086 21.6473 34.3396C22.0726 34.271 22.4744 34.56 22.5434 34.9861C22.6612 35.7141 22.8224 36.401 23.0225 37.0276C23.1724 37.4973 23.6071 37.8129 24.1041 37.8129H28.772V26.1873H24.1041C23.6071 26.1873 23.1725 26.5029 23.0225 26.9725C22.6989 27.9859 22.3131 29.6807 22.3131 32C22.3131 32.4315 21.9634 32.7813 21.5319 32.7813C21.1004 32.7813 20.7506 32.4315 20.7506 32C20.7506 29.4795 21.1767 27.6164 21.5341 26.4971C21.8917 25.3772 22.9244 24.6247 24.1041 24.6247H29.2296L33.6126 20.2417C34.1121 19.7421 34.8568 19.594 35.5095 19.8643C36.1622 20.1347 36.584 20.7659 36.584 21.4724V42.5275C36.584 43.234 36.1622 43.8653 35.5095 44.1357C35.2928 44.2254 35.0662 44.269 34.8416 44.269ZM30.3344 38.2705L34.7174 42.6535C34.7733 42.7093 34.8385 42.7222 34.9115 42.6921C34.9844 42.6619 35.0214 42.6066 35.0214 42.5276V21.4725C35.0214 21.3936 34.9844 21.3383 34.9115 21.3081C34.8386 21.2779 34.7733 21.2908 34.7174 21.3467L30.3344 25.7297V38.2705ZM39.9173 8.91608V15.4896C39.9173 15.9205 40.2677 16.2709 40.6986 16.2709H47.2721C46.2564 15.2551 44.9255 13.9243 43.5947 12.5935C42.2639 11.2625 40.933 9.93181 39.9173 8.91608ZM42.2611 39.7466C41.8296 39.7466 41.4798 39.3968 41.4798 38.9654V25.0347C41.4798 24.6033 41.8296 24.2535 42.2611 24.2535C42.6925 24.2535 43.0423 24.6033 43.0423 25.0347V38.9653C43.0423 39.3968 42.6925 39.7466 42.2611 39.7466ZM38.3548 7.67712C38.3548 7.24567 38.005 6.89587 37.5736 6.89587H15.4902C15.0594 6.89587 14.709 7.24629 14.709 7.67712V25.5679C14.709 25.9993 14.3592 26.3491 13.9277 26.3491C13.4963 26.3491 13.1465 25.9993 13.1465 25.5679V7.67712C13.1465 6.38473 14.1978 5.33337 15.4902 5.33337H37.5736C38.1995 5.33337 38.788 5.57712 39.2308 6.01973C39.2308 6.01973 39.2308 6.01973 39.2309 6.01983C39.3043 6.09327 42.0019 8.79087 44.6996 11.4886C47.3956 14.1846 50.0917 16.8807 50.1682 16.9573C50.2448 17.034 50.1684 16.9573 50.1684 16.9574H50.1685C50.6111 17.4001 50.8547 17.9886 50.8547 18.6145V42.5989C50.8547 43.0304 50.5049 43.3801 50.0735 43.3801C49.642 43.3801 49.2922 43.0304 49.2922 42.5989V18.6146C49.2922 18.1832 48.9424 17.8334 48.511 17.8334H40.6985C39.4061 17.8334 38.3547 16.782 38.3547 15.4896V7.67712H38.3548ZM45.3861 36.5894C44.9546 36.5894 44.6048 36.2396 44.6048 35.8082V28.192C44.6048 27.7606 44.9546 27.4108 45.3861 27.4108C45.8175 27.4108 46.1673 27.7606 46.1673 28.192V35.8082C46.1673 36.2396 45.8175 36.5894 45.3861 36.5894ZM39.1361 35.8921C38.7046 35.8921 38.3548 35.5423 38.3548 35.1109V28.8892C38.3548 28.4578 38.7046 28.108 39.1361 28.108C39.5675 28.108 39.9173 28.4578 39.9173 28.8892V35.1109C39.9173 35.5423 39.5675 35.8921 39.1361 35.8921Z" fill="#00ADBB"/>
</g>
<defs>
<clipPath id="clip0_3100_21854">
<rect width="42.6667" height="53.3333" fill="white" transform="translate(10.667 5.33337)"/>
</clipPath>
</defs>
</svg>
