<svg width="64" height="67" viewBox="0 0 64 67" fill="none" xmlns="http://www.w3.org/2000/svg">
<g filter="url(#filter0_dd_44_9438)">
<g clip-path="url(#clip0_44_9438)">
<path d="M31.9998 51.0471C21.5236 51.0471 12.9521 42.4757 12.9521 31.9995C12.9521 21.5233 21.5236 12.9519 31.9998 12.9519C42.476 12.9519 51.0474 21.5233 51.0474 31.9995C51.0474 42.4757 42.476 51.0471 31.9998 51.0471ZM31.9998 14.8567C22.5712 14.8567 14.8569 22.571 14.8569 31.9995C14.8569 41.4281 22.5712 49.1424 31.9998 49.1424C41.4283 49.1424 49.1426 41.4281 49.1426 31.9995C49.1426 22.571 41.4283 14.8567 31.9998 14.8567Z" fill="white"/>
<path d="M28.6665 50.7621C28.5712 50.7621 28.476 50.7621 28.3808 50.7621C25.8093 50.2859 23.4284 46.0002 23.1427 45.524C22.8569 45.0478 22.5712 44.4764 22.3808 44.0002C21.8093 42.5717 21.8093 41.6193 21.8093 40.9526C21.8093 40.4764 21.8093 40.0955 21.6189 39.6193C21.4284 39.1431 21.2379 38.9526 20.476 38.5717C19.8093 38.1907 18.7617 37.6193 17.5236 36.3812C16.2855 35.3336 15.3331 34.0002 14.5712 32.4764C13.8093 30.6669 13.4284 28.6669 13.6189 26.7621L15.5236 26.9526C15.3331 28.4764 15.6189 30.0002 16.1903 31.3336C16.2855 30.9526 16.476 30.5717 16.7617 30.1907C17.5236 29.0478 18.5712 28.2859 19.6189 28.1907C20.2855 28.0955 20.8569 28.3812 21.1427 28.5717C21.1427 28.4764 21.1427 28.4764 21.1427 28.3812C21.1427 27.7145 21.2379 26.8574 21.6189 25.8098C22.095 24.5717 22.9522 24.0002 23.5236 23.524C24.095 23.1431 24.476 22.8574 24.6665 22.1907C24.8569 21.7145 24.8569 21.3336 24.7617 20.8574C24.7617 20.2859 24.6665 19.524 25.1427 18.4764C25.5236 17.7145 25.9998 17.2383 26.2855 16.9526C25.9998 16.8574 25.3331 16.6669 24.095 16.4764L24.2855 14.5717C26.095 14.7621 28.095 15.2383 28.2855 16.5717C28.476 17.3336 27.9046 17.905 27.5236 18.2859C27.2379 18.5717 26.9522 18.8574 26.7617 19.3336C26.476 19.905 26.476 20.1907 26.5712 20.7621C26.5712 21.3336 26.6665 21.905 26.3808 22.8574C25.9046 24.0955 25.1427 24.6669 24.476 25.1431C23.9046 25.524 23.5236 25.8098 23.2379 26.5717C22.9522 27.2383 22.9522 27.905 22.8569 28.4764C22.7617 29.2383 22.7617 30.0955 21.9046 30.4764C21.1427 30.8574 20.476 30.4764 20.095 30.2859C19.8093 30.0955 19.6189 30.0002 19.4284 30.0955C19.0474 30.0955 18.476 30.5717 18.095 31.2383C17.6189 32.0002 17.4284 32.7621 17.6189 33.2383C17.8093 33.6193 18.5712 34.6669 22.2855 34.6669C23.5236 34.6669 24.2855 34.4764 25.0474 34.1907C25.9046 33.905 26.8569 33.6193 28.2855 33.905C30.3808 34.2859 32.7617 35.7145 33.4284 38.0002C33.7141 39.7145 33.4284 41.3336 32.476 42.7621C31.9046 43.8098 31.2379 44.3812 30.6665 44.9526C30.1903 45.4288 29.7141 45.8098 29.4284 46.5717C29.0474 47.4288 29.2379 48.2859 29.3331 48.8574C29.4284 49.4288 29.5236 50.0002 29.0474 50.3812C29.2379 50.6669 28.9522 50.7621 28.6665 50.7621ZM20.9522 36.4764C21.1427 36.5717 21.3331 36.6669 21.5236 36.8574C22.3808 37.3336 23.0474 37.7145 23.5236 38.8574C23.8093 39.6193 23.8093 40.1907 23.8093 40.7621C23.8093 41.4288 23.8093 42.0955 24.1903 43.1431C24.3808 43.6193 24.5712 44.0002 24.8569 44.4764C25.5236 45.6193 26.5712 47.2383 27.6188 48.0955C27.5236 47.4288 27.6188 46.5717 27.9998 45.7145C28.476 44.5717 29.1427 44.0002 29.7141 43.4288C30.1903 42.9526 30.6665 42.5717 31.1427 41.7145C31.8093 40.6669 31.9998 39.524 31.8093 38.3812C31.4284 36.9526 29.6188 36.0002 28.1903 35.7145C27.2379 35.524 26.6665 35.7145 25.9046 35.905C25.1427 36.0955 24.095 36.3812 22.5712 36.3812C21.9998 36.5717 21.4284 36.5717 20.9522 36.4764Z" fill="white"/>
<path d="M45.6184 43.048C44.8565 39.5242 43.5232 37.3337 41.8089 36.5718C40.9517 36.1909 40.1898 36.1909 39.3327 36.1909C38.0946 36.1909 36.7613 36.1909 35.4279 35.1433C33.9041 33.8099 33.047 31.8099 33.3327 29.8099C33.6184 27.7147 35.047 25.8099 37.3327 24.4766C36.5708 24.5718 35.6184 24.1909 34.7613 23.429C33.8089 22.6671 32.9517 21.429 33.2375 20.2861C33.4279 19.5242 34.0946 19.1433 34.5708 18.8576C34.7613 18.7623 34.9517 18.5718 35.047 18.5718C35.047 18.5718 34.9517 18.3814 34.8565 18.1909C34.5708 17.8099 34.2851 17.2385 34.2851 16.4766V16.3814C34.3803 15.3337 35.047 14.3814 35.9041 13.8099L36.8565 15.429C36.4755 15.6195 36.1898 16.0957 36.0946 16.4766C36.0946 16.6671 36.1898 16.8576 36.3803 17.1433C36.666 17.5242 37.047 18.1909 36.8565 18.9528C36.666 19.8099 35.9994 20.1909 35.5232 20.4766C35.3327 20.5718 35.1422 20.7623 35.047 20.7623C35.047 20.8576 35.2375 21.3337 35.8089 21.9052C36.3803 22.4766 36.9517 22.5718 37.047 22.5718C37.047 22.4766 37.1422 22.0004 37.1422 21.7147C37.2375 20.7623 37.3327 19.5242 38.3803 18.7623C39.2375 18.0956 40.666 17.8099 41.9041 18.0956C43.047 18.3814 43.9994 18.9528 44.4755 19.8099C45.047 20.8576 45.047 22.0956 44.4755 23.1433C43.8089 24.3814 42.5708 24.6671 41.4279 24.9528C40.666 25.1433 39.8089 25.3337 38.7613 25.8099C37.4279 26.4766 35.2375 27.9052 34.9517 30.0956C34.7613 31.5242 35.3327 32.8575 36.3803 33.8099C37.1422 34.4766 37.9994 34.3814 39.047 34.3814C39.9994 34.3814 41.1422 34.3814 42.3803 34.8575C44.7613 35.9052 46.3803 38.4766 47.3327 42.6671L45.6184 43.048ZM41.047 19.8099C40.4755 19.8099 39.9994 19.9052 39.7136 20.1909C39.3327 20.4766 39.2375 20.9528 39.2375 21.8099C39.1422 22.3814 39.1422 23.1433 38.666 23.7147C39.7136 23.2385 40.5708 23.048 41.3327 22.9528C42.4755 22.6671 42.8565 22.5718 43.1422 22.0956C43.4279 21.6195 43.4279 21.048 43.1422 20.6671C42.9517 20.2861 42.4755 20.0004 41.8089 19.9052C41.4279 19.8099 41.2375 19.8099 41.047 19.8099Z" fill="white"/>
<path d="M31.9997 58.6673C17.333 58.6673 5.33301 46.6673 5.33301 32.0006C5.33301 31.4292 5.71396 31.0482 6.28539 31.0482C6.85682 31.0482 7.23777 31.4292 7.23777 32.0006C7.23777 45.6196 18.3806 56.7625 31.9997 56.7625C32.5711 56.7625 32.9521 57.1435 32.9521 57.7149C32.9521 58.2863 32.5711 58.6673 31.9997 58.6673Z" fill="white"/>
<path d="M57.7135 32.9524C57.1421 32.9524 56.7612 32.5715 56.7612 32C56.7612 18.381 45.6183 7.23814 31.9993 7.23814C31.4278 7.23814 31.0469 6.85718 31.0469 6.28575C31.0469 5.71433 31.4278 5.33337 31.9993 5.33337C46.6659 5.33337 58.6659 17.3334 58.6659 32C58.6659 32.5715 58.285 32.9524 57.7135 32.9524Z" fill="white"/>
<path d="M36.4758 58.285C36.3806 58.285 36.1901 58.285 36.0949 58.1898C35.9996 58.0945 35.9044 58.0945 35.8092 57.9993C35.6187 57.8088 35.5234 57.6183 35.5234 57.3326C35.5234 57.2374 35.5234 57.0469 35.6187 56.9517C35.6187 56.8564 35.7139 56.7612 35.8092 56.666C36.1901 56.285 36.8568 56.285 37.1425 56.666C37.2377 56.7612 37.333 56.8564 37.333 56.9517C37.4282 57.0469 37.4282 57.1422 37.4282 57.3326C37.4282 57.6183 37.333 57.8088 37.1425 57.9993C36.952 58.1898 36.7615 58.285 36.4758 58.285Z" fill="white"/>
<path d="M40.762 57.1431C40.4762 57.1431 40.2858 57.0478 40.0953 56.8573C39.9048 56.6669 39.8096 56.4764 39.8096 56.1907C39.8096 56.0954 39.8096 55.905 39.9048 55.8097C40 55.7145 40 55.6192 40.0953 55.524C40.4762 55.143 41.0477 55.143 41.4286 55.524C41.5239 55.6192 41.6191 55.7145 41.6191 55.8097C41.7143 55.905 41.7143 56.0002 41.7143 56.1907C41.7143 56.3811 41.7143 56.4764 41.6191 56.5716C41.6191 56.6669 41.5239 56.7621 41.4286 56.8573C41.3334 57.0478 41.0477 57.1431 40.762 57.1431Z" fill="white"/>
<path d="M44.8567 55.2381C44.7614 55.2381 44.571 55.2381 44.4757 55.1429C44.3805 55.0477 44.2852 55.0477 44.19 54.9524C44.0948 54.8572 43.9995 54.7619 43.9995 54.6667C43.9995 54.5715 43.9043 54.4762 43.9043 54.2858C43.9043 54.1905 43.9043 54 43.9995 53.9048C43.9995 53.8096 44.0948 53.7143 44.19 53.6191C44.571 53.2381 45.1424 53.2381 45.5233 53.6191C45.6186 53.7143 45.7138 53.8096 45.7138 53.9048C45.7138 54 45.8091 54.0953 45.8091 54.2858C45.8091 54.381 45.8091 54.5715 45.7138 54.6667C45.6186 54.7619 45.6186 54.8572 45.5233 54.9524C45.4281 55.0477 45.3329 55.1429 45.2376 55.1429C45.1424 55.2381 44.9519 55.2381 44.8567 55.2381Z" fill="white"/>
<path d="M48.5715 52.6665C48.2858 52.6665 48.0953 52.5712 47.9049 52.3808C47.8096 52.2855 47.7144 52.1903 47.7144 52.0951C47.7144 51.9998 47.6191 51.9046 47.6191 51.7141C47.6191 51.4284 47.7144 51.2379 47.9049 51.0474C48.2858 50.6665 48.9525 50.6665 49.2382 51.0474C49.4287 51.2379 49.5239 51.4284 49.5239 51.7141C49.5239 51.8093 49.5239 51.9998 49.4287 52.0951C49.3334 52.1903 49.3334 52.2855 49.2382 52.3808C49.1429 52.476 49.0477 52.5712 48.9525 52.5712C48.762 52.5712 48.6668 52.6665 48.5715 52.6665Z" fill="white"/>
<path d="M51.7141 49.5246C51.4284 49.5246 51.2379 49.4294 51.0474 49.2389C50.857 49.0484 50.7617 48.858 50.7617 48.5723C50.7617 48.2865 50.857 48.0961 51.0474 47.9056C51.2379 47.7151 51.6189 47.6199 51.9046 47.6199C51.9998 47.6199 51.9998 47.6199 52.0951 47.7151C52.1903 47.7151 52.1903 47.7151 52.2855 47.8103C52.3808 47.8103 52.3808 47.9056 52.476 47.9056C52.6665 48.0961 52.7617 48.3818 52.7617 48.5723C52.7617 48.858 52.6665 49.0484 52.476 49.2389C52.3808 49.3342 52.2855 49.4294 52.1903 49.4294C52.0951 49.4294 51.8093 49.5246 51.7141 49.5246Z" fill="white"/>
<path d="M54.2854 45.8098C54.1901 45.8098 53.9997 45.8098 53.9044 45.7145C53.8092 45.6193 53.714 45.6193 53.6187 45.524C53.5235 45.4288 53.4282 45.3336 53.4282 45.2383C53.333 45.1431 53.333 45.0478 53.333 44.8574C53.333 44.5717 53.4282 44.3812 53.6187 44.1907C53.9044 43.905 54.2854 43.8097 54.6663 44.0002C54.7616 44.0955 54.8568 44.0955 54.952 44.1907C55.1425 44.3812 55.2378 44.6669 55.2378 44.8574C55.2378 44.9526 55.2378 45.1431 55.1425 45.2383C55.1425 45.3336 55.0473 45.4288 54.952 45.524C54.7616 45.7145 54.4759 45.8098 54.2854 45.8098Z" fill="white"/>
<path d="M56.1907 41.7147C55.9049 41.7147 55.7145 41.6195 55.524 41.429C55.4288 41.3338 55.3335 41.2385 55.3335 41.1433C55.3335 41.048 55.2383 40.9528 55.2383 40.7623C55.2383 40.5718 55.2383 40.4766 55.3335 40.3814C55.3335 40.2861 55.4288 40.1909 55.524 40.0957C55.9049 39.7147 56.4764 39.7147 56.8573 40.0957C56.9526 40.1909 57.0478 40.2861 57.0478 40.3814C57.0478 40.4766 57.143 40.5718 57.143 40.7623C57.143 40.9528 57.143 41.048 57.0478 41.1433C56.9526 41.2385 56.9526 41.3338 56.8573 41.429C56.7621 41.5242 56.6669 41.6195 56.5716 41.6195C56.4764 41.6195 56.2859 41.7147 56.1907 41.7147Z" fill="white"/>
<path d="M57.3332 37.4282C57.0475 37.4282 56.8571 37.333 56.6666 37.1425C56.5713 37.0473 56.4761 36.952 56.4761 36.8568C56.4761 36.7615 56.3809 36.6663 56.3809 36.4758C56.3809 36.2853 56.3809 36.1901 56.4761 36.0949C56.4761 35.9996 56.5713 35.9044 56.6666 35.8092C57.0475 35.4282 57.619 35.4282 57.9999 35.8092C58.0951 35.9044 58.1904 35.9996 58.1904 36.0949C58.1904 36.1901 58.2856 36.2853 58.2856 36.4758C58.2856 36.6663 58.2856 36.7615 58.1904 36.8568C58.0952 36.952 58.0951 37.0473 57.9999 37.1425C57.9047 37.2377 57.8094 37.333 57.7142 37.333C57.619 37.333 57.4285 37.4282 57.3332 37.4282Z" fill="white"/>
<path d="M27.5232 7.61961C27.428 7.61961 27.428 7.61961 27.3327 7.61961C27.2375 7.61961 27.2375 7.61961 27.1423 7.52437C27.047 7.52437 27.047 7.42913 26.9518 7.42913C26.8565 7.42913 26.8565 7.33389 26.7613 7.33389C26.6661 7.23865 26.5708 7.14342 26.5708 7.04818C26.5708 6.95294 26.4756 6.8577 26.4756 6.66722C26.4756 6.38151 26.5708 6.19103 26.7613 6.00056C26.8565 6.00056 26.8565 5.90532 26.9518 5.90532C27.047 5.90532 27.047 5.81008 27.1423 5.81008C27.2375 5.81008 27.2375 5.81008 27.3327 5.71484C27.5232 5.71484 27.7137 5.71484 27.9042 5.81008C27.9994 5.90532 28.0946 5.90532 28.1899 6.00056C28.3803 6.19103 28.4756 6.38151 28.4756 6.66722C28.4756 6.95294 28.3803 7.14342 28.1899 7.33389C27.9994 7.52437 27.8089 7.61961 27.5232 7.61961Z" fill="white"/>
<path d="M23.2375 8.76153C23.1423 8.76153 22.9518 8.76153 22.8566 8.66629C22.7613 8.66629 22.6661 8.57105 22.5709 8.47581L22.4756 8.38057C22.4756 8.28534 22.3804 8.28534 22.3804 8.1901C22.3804 8.09486 22.3804 8.09486 22.2852 7.99962C22.2852 7.90438 22.2852 7.90438 22.2852 7.80915C22.2852 7.71391 22.2852 7.71391 22.2852 7.61867C22.2852 7.52343 22.2852 7.52343 22.3804 7.42819C22.3804 7.33295 22.4756 7.33295 22.4756 7.23772C22.4756 7.23772 22.4756 7.23772 22.5709 7.14248C22.6661 7.04724 22.7613 6.952 22.8566 6.952C23.2375 6.76153 23.6185 6.85676 23.9042 7.14248C23.9042 7.14248 23.9994 7.23772 23.9994 7.33295C23.9994 7.33295 24.0947 7.42819 24.0947 7.52343C24.0947 7.61867 24.0947 7.61867 24.1899 7.71391C24.1899 7.80915 24.1899 7.80915 24.1899 7.90438C24.1899 7.99962 24.1899 7.99962 24.1899 8.09486C24.1899 8.1901 24.1899 8.1901 24.0947 8.28534C24.0947 8.38057 23.9994 8.38057 23.9994 8.47581L23.9042 8.57105C23.809 8.66629 23.7137 8.76153 23.6185 8.76153C23.428 8.76153 23.3328 8.76153 23.2375 8.76153Z" fill="white"/>
<path d="M19.1428 10.6661C19.0476 10.6661 18.8571 10.6661 18.7619 10.5709C18.6666 10.4756 18.5714 10.4756 18.4761 10.3804C18.3809 10.2852 18.2857 10.1899 18.2857 10.0947C18.2857 9.99944 18.1904 9.9042 18.1904 9.71373C18.1904 9.61849 18.1904 9.42801 18.2857 9.33278C18.3809 9.23754 18.3809 9.1423 18.4761 9.04706C18.5714 8.95182 18.6666 8.85658 18.7619 8.85658C18.9523 8.76135 19.2381 8.76135 19.5238 8.85658C19.619 8.85658 19.7142 8.95182 19.8095 9.04706C19.9047 9.1423 20 9.23754 20 9.33278C20.0952 9.42801 20.0952 9.52325 20.0952 9.71373C20.0952 9.99944 20 10.1899 19.8095 10.3804C19.619 10.5709 19.4285 10.6661 19.1428 10.6661Z" fill="white"/>
<path d="M15.428 13.2383C15.3327 13.2383 15.3327 13.2383 15.2375 13.2383C15.1423 13.2383 15.1423 13.2383 15.047 13.143C14.9518 13.143 14.9518 13.143 14.8565 13.0478L14.7613 12.9526C14.6661 12.8573 14.6661 12.7621 14.5708 12.6669C14.5708 12.5716 14.4756 12.4764 14.4756 12.2859C14.4756 12.1907 14.4756 12.1907 14.4756 12.0954C14.4756 12.0002 14.4756 12.0002 14.5708 11.9049C14.5708 11.8097 14.6661 11.8097 14.6661 11.7145C14.6661 11.6192 14.7613 11.6192 14.7613 11.524C15.1423 11.143 15.8089 11.143 16.0946 11.524C16.2851 11.7145 16.3803 12.0002 16.3803 12.1907C16.3803 12.2859 16.3803 12.4764 16.2851 12.5716C16.1899 12.6669 16.1899 12.7621 16.0946 12.8573C16.0946 12.8573 15.9994 12.9526 15.9042 12.9526C15.8089 12.9526 15.8089 13.0478 15.7137 13.0478C15.6184 13.0478 15.6184 13.143 15.5232 13.143C15.6184 13.2383 15.5232 13.2383 15.428 13.2383Z" fill="white"/>
<path d="M12.2854 16.3801C12.1902 16.3801 12.1902 16.3801 12.0949 16.3801C11.9997 16.3801 11.9997 16.3801 11.9044 16.2849C11.8092 16.2849 11.8092 16.1896 11.714 16.1896L11.6187 16.0944C11.5235 15.9992 11.4282 15.9039 11.4282 15.8087C11.333 15.7134 11.333 15.6182 11.333 15.4277C11.333 15.3325 11.333 15.3325 11.333 15.2372C11.333 15.142 11.333 15.142 11.4282 15.0468C11.4282 14.9515 11.4282 14.9515 11.5235 14.8563C11.5235 14.7611 11.6187 14.7611 11.6187 14.7611L11.714 14.6658C11.8092 14.6658 11.8092 14.5706 11.9044 14.5706C11.9997 14.5706 11.9997 14.5706 12.0949 14.4753C12.2854 14.4753 12.4759 14.4753 12.6663 14.5706C12.7616 14.6658 12.8568 14.6658 12.9521 14.7611L13.0473 14.8563C13.0473 14.9515 13.1425 14.9515 13.1425 15.0468C13.1425 15.142 13.2378 15.142 13.2378 15.2372C13.2378 15.3325 13.2378 15.3325 13.2378 15.4277C13.2378 15.523 13.2378 15.7134 13.1425 15.8087C13.1425 15.9039 13.0473 15.9992 12.9521 16.0944C12.8568 16.1896 12.7616 16.2849 12.6663 16.2849C12.5711 16.3801 12.3806 16.3801 12.2854 16.3801Z" fill="white"/>
<path d="M9.71363 20.0955C9.6184 20.0955 9.6184 20.0955 9.52316 20.0955C9.42792 20.0955 9.42792 20.0955 9.33268 20.0003C9.23744 20.0003 9.23744 20.0003 9.14221 19.905C9.04697 19.905 9.04697 19.8098 8.95173 19.8098C8.85649 19.7146 8.76125 19.6193 8.76125 19.5241C8.76125 19.4288 8.66602 19.3336 8.66602 19.1431C8.66602 18.8574 8.76125 18.6669 8.95173 18.4765C9.04697 18.4765 9.04697 18.3812 9.14221 18.3812C9.23744 18.3812 9.23744 18.286 9.33268 18.286C9.42792 18.286 9.42792 18.1907 9.52316 18.1907C9.80887 18.0955 10.1898 18.1907 10.3803 18.4765C10.5708 18.6669 10.666 18.8574 10.666 19.1431C10.666 19.2384 10.666 19.4288 10.5708 19.5241C10.4755 19.6193 10.4755 19.7146 10.3803 19.8098C10.3803 19.8098 10.2851 19.905 10.1898 19.905C10.0946 19.905 10.0946 20.0003 9.99935 20.0003C9.90411 20.0003 9.90411 20.0003 9.80887 20.0955C9.90411 20.0955 9.80887 20.0955 9.71363 20.0955Z" fill="white"/>
<path d="M7.80883 24.1912C7.52311 24.1912 7.33264 24.096 7.14216 23.9055C7.04692 23.8103 6.95168 23.715 6.95168 23.6198C6.85645 23.5245 6.85645 23.4293 6.85645 23.2388C6.85645 22.9531 6.95168 22.7626 7.14216 22.5722C7.42787 22.2865 7.80883 22.1912 8.18978 22.3817C8.28502 22.3817 8.38025 22.4769 8.47549 22.5722C8.66597 22.7626 8.76121 22.9531 8.76121 23.2388C8.76121 23.3341 8.76121 23.5245 8.66597 23.6198C8.66597 23.715 8.57073 23.8103 8.47549 23.9055C8.28502 24.096 8.09454 24.1912 7.80883 24.1912Z" fill="white"/>
<path d="M6.66625 28.4764C6.38053 28.4764 6.19006 28.3811 5.99958 28.1907C5.80911 28.0002 5.71387 27.7145 5.71387 27.524C5.71387 27.2383 5.80911 27.0478 5.99958 26.8573C6.09482 26.7621 6.19006 26.6668 6.2853 26.6668C6.66625 26.4764 7.0472 26.5716 7.33291 26.8573C7.52339 27.0478 7.61863 27.2383 7.61863 27.524C7.61863 27.6192 7.61863 27.8097 7.52339 27.9049C7.52339 28.0002 7.42815 28.0954 7.33291 28.1907L7.23768 28.2859C7.14244 28.2859 7.14244 28.3811 7.0472 28.3811C6.95196 28.3811 6.95196 28.3811 6.85672 28.4764C6.76149 28.4764 6.76149 28.4764 6.66625 28.4764Z" fill="white"/>
</g>
</g>
<defs>
<filter id="filter0_dd_44_9438" x="-4" y="0" width="72" height="72" filterUnits="userSpaceOnUse" color-interpolation-filters="sRGB">
<feFlood flood-opacity="0" result="BackgroundImageFix"/>
<feColorMatrix in="SourceAlpha" type="matrix" values="0 0 0 0 0 0 0 0 0 0 0 0 0 0 0 0 0 0 127 0" result="hardAlpha"/>
<feOffset dy="4"/>
<feGaussianBlur stdDeviation="2"/>
<feComposite in2="hardAlpha" operator="out"/>
<feColorMatrix type="matrix" values="0 0 0 0 0 0 0 0 0 0 0 0 0 0 0 0 0 0 0.25 0"/>
<feBlend mode="normal" in2="BackgroundImageFix" result="effect1_dropShadow_44_9438"/>
<feColorMatrix in="SourceAlpha" type="matrix" values="0 0 0 0 0 0 0 0 0 0 0 0 0 0 0 0 0 0 127 0" result="hardAlpha"/>
<feOffset dy="4"/>
<feGaussianBlur stdDeviation="2"/>
<feComposite in2="hardAlpha" operator="out"/>
<feColorMatrix type="matrix" values="0 0 0 0 0 0 0 0 0 0 0 0 0 0 0 0 0 0 0.25 0"/>
<feBlend mode="normal" in2="effect1_dropShadow_44_9438" result="effect2_dropShadow_44_9438"/>
<feBlend mode="normal" in="SourceGraphic" in2="effect2_dropShadow_44_9438" result="shape"/>
</filter>
<clipPath id="clip0_44_9438">
<rect width="53.3333" height="53.3333" fill="white" transform="translate(5.33301 5.33337)"/>
</clipPath>
</defs>
</svg>
