<svg width="64" height="64" viewBox="0 0 64 64" fill="none" xmlns="http://www.w3.org/2000/svg">
<g clip-path="url(#clip0_44_3806)">
<path d="M20 54.565C19.4 54.565 19 54.1547 19 53.5393C19 52.9239 19.4 52.5137 20 52.5137C23.3 52.5137 25.4 48.0009 26.1 45.3342C26.3 44.6162 26.6 44.0009 27.1 43.488L31.4 39.0778C32 38.3598 32 37.3342 31.4 36.6163C30.7 35.8983 29.7 35.8983 29 36.6163L24.6 41.2316C24.5 41.3342 24.4 41.4368 24.3 41.5393C23.7 41.9496 23.1 42.0521 22.4 41.9496C21.8 41.847 21.2 41.4368 20.8 40.8214C20.7 40.6162 20.6 40.4111 20.5 40.206L20.2 39.1804C20 38.6675 20.3 38.0521 20.8 37.847C21.3 37.6419 21.9 37.9496 22.1 38.4624L22.4 39.488C22.4 39.5906 22.4 39.5906 22.5 39.5906C22.6 39.6932 22.7 39.7957 22.8 39.7957C22.9 39.7957 23 39.7957 23.1 39.6932L27.6 35.0778C27.6 35.0778 27.6 35.0778 27.7 34.9752C28.3 34.3598 29.3 33.9496 30.2 33.9496C31.2 33.9496 32.1 34.3598 32.8 35.0778C34.2 36.5137 34.2 38.9752 32.8 40.4111L28.4 44.9239C28.1 45.1291 28 45.5393 27.9 45.847C27 49.847 24.2 54.565 20 54.565Z" fill="white"/>
<path d="M20 58.6669C19.7 58.6669 19.5 58.5643 19.3 58.3592C18.9 57.9489 18.9 57.3335 19.3 56.9233L20.6 55.5899L11 45.7438L9.7 47.0771C9.3 47.4874 8.7 47.4874 8.3 47.0771C7.9 46.6668 7.9 46.0515 8.3 45.6412L10.3 43.5899C10.7 43.1797 11.3 43.1797 11.7 43.5899L22.7 54.872C23.1 55.2822 23.1 55.8976 22.7 56.3079L20.7 58.3592C20.5 58.5643 20.3 58.6669 20 58.6669Z" fill="white"/>
<path d="M12.1001 46.1536C12.0001 46.1536 11.9001 46.1536 11.9001 46.1536C11.4001 46.0511 11.0001 45.4357 11.2001 44.9229L14.0001 33.2305C14.3001 31.2818 16.0001 29.9485 17.8001 29.9485H21.0001C21.6001 29.9485 22.0001 30.3587 22.0001 30.9741C22.0001 31.5895 21.6001 31.9998 21.0001 31.9998H17.9001C16.9001 31.9998 16.1001 32.6152 15.9001 33.6408L13.0001 45.3331C12.9001 45.8459 12.5001 46.1536 12.1001 46.1536Z" fill="white"/>
<path d="M53 50.4616H30C29.4 50.4616 29 50.0513 29 49.4359C29 48.8206 29.4 48.4103 30 48.4103H53C53.6 48.4103 54 48 54 47.3847V37.9488C52.8 38.7693 51.4 39.1795 50 39.1795C46.7 39.1795 44 36.4103 44 33.0257C44 29.6411 46.7 26.8718 50 26.8718C51.4 26.8718 52.8 27.3847 54 28.1026V18.6667C54 18.0513 53.6 17.6411 53 17.6411H42.8C41.7 17.6411 40.8 16.718 40.8 15.5898C40.8 15.1795 40.9 14.7693 41.1 14.4616C41.7 13.5385 42 12.5129 42 11.4872C42 9.23081 40.2 7.38466 38 7.38466C35.8 7.38466 34 9.23081 34 11.4872C34 12.5129 34.3 13.5385 34.9 14.4616C35.2 14.9744 35.3 15.4872 35.2 16C35.1 16.5129 34.8 17.0257 34.3 17.2308C34 17.4359 33.6 17.5385 33.3 17.5385H23C22.4 17.5385 22 17.9488 22 18.5641V34.9744C22 35.5898 21.6 36 21 36C20.4 36 20 35.5898 20 34.9744V18.6667C20 16.9231 21.3 15.5898 23 15.5898H33.2C32.5 14.359 32 12.9231 32 11.4872C32 8.10261 34.7 5.33337 38 5.33337C41.3 5.33337 44 8.10261 44 11.4872C44 12.9231 43.5 14.359 42.8 15.5898H53C54.7 15.5898 56 16.9231 56 18.6667V28.1026C56 28.5129 55.9 28.9231 55.7 29.2308C55.1 30.1539 53.9 30.4616 52.9 29.8462C52 29.2308 51 28.9231 50 28.9231C47.8 28.9231 46 30.7693 46 33.0257C46 35.2821 47.8 37.1283 50 37.1283C51 37.1283 52 36.8206 52.9 36.2052C53.2 36 53.6 35.8975 54 35.8975C55.1 35.8975 56 36.8206 56 37.9488V47.3847C56 49.1283 54.7 50.4616 53 50.4616Z" fill="white"/>
</g>
<defs>
<clipPath id="clip0_44_3806">
<rect width="48" height="53.3333" fill="white" transform="translate(8 5.33337)"/>
</clipPath>
</defs>
</svg>
