<svg width="65" height="64" viewBox="0 0 65 64" fill="none" xmlns="http://www.w3.org/2000/svg">
<g clip-path="url(#clip0_3100_21840)">
<path d="M47.4978 31.68C47.912 31.68 48.2478 31.3442 48.2478 30.93C48.2478 30.5158 47.912 30.18 47.4978 30.18H46.6446V22.9139C46.6446 22.0583 45.9486 21.3623 45.093 21.3623H41.8866C41.031 21.3623 40.335 22.0583 40.335 22.9139V30.18H38.6286V26.9219C38.6286 26.0663 37.9326 25.3703 37.077 25.3703H33.8706C33.015 25.3703 32.319 26.0663 32.319 26.9219V30.18H30.6125V22.1123C30.6125 21.6981 30.2767 21.3623 29.8625 21.3623C29.4483 21.3623 29.1125 21.6981 29.1125 22.1123V30.18H25.8028V17.3026C25.8028 17.2741 25.8259 17.251 25.8544 17.251H29.0608C29.0893 17.251 29.1124 17.2741 29.1124 17.3026V18.9059C29.1124 19.3201 29.4482 19.6559 29.8624 19.6559C30.2766 19.6559 30.6124 19.3201 30.6124 18.9059V17.3026C30.6124 16.447 29.9164 15.751 29.0608 15.751H25.8544C24.9988 15.751 24.3028 16.447 24.3028 17.3026V30.18H22.5964V23.7155C22.5964 22.8599 21.9004 22.1639 21.0448 22.1639H17.8384C16.9828 22.1639 16.2868 22.8599 16.2868 23.7155V30.18H15.4336C15.0194 30.18 14.6836 30.5158 14.6836 30.93C14.6836 31.3442 15.0194 31.68 15.4336 31.68H47.4978ZM41.8349 22.9139C41.8349 22.8854 41.858 22.8623 41.8865 22.8623H45.0929C45.1214 22.8623 45.1445 22.8854 45.1445 22.9139V30.18H41.8348V22.9139H41.8349ZM33.8188 26.9219C33.8188 26.8934 33.8419 26.8703 33.8704 26.8703H37.0768C37.1053 26.8703 37.1284 26.8934 37.1284 26.9219V30.18H33.8187V26.9219H33.8188ZM17.7866 23.7155C17.7866 23.687 17.8097 23.6639 17.8382 23.6639H21.0446C21.0731 23.6639 21.0962 23.687 21.0962 23.7155V30.18H17.7865V23.7155H17.7866Z" fill="#00ADBB"/>
<path d="M42.6879 52.6252H13.0282C12.9997 52.6252 12.9766 52.6021 12.9766 52.5736V7.68319C12.9766 7.65469 12.9997 7.63159 13.0282 7.63159H40.8903C40.9736 7.63159 41.0554 7.63969 41.1362 7.65169V14.8978C41.1362 15.7534 41.8322 16.4494 42.6878 16.4494H49.9339C49.9459 16.5302 49.9539 16.612 49.9539 16.6952V46.9623C49.9539 47.3765 50.2897 47.7123 50.7039 47.7123C51.1181 47.7123 51.4539 47.3765 51.4539 46.9623V16.6951C51.4539 15.8524 51.1257 15.0602 50.5299 14.4643L43.1211 7.05559C42.5252 6.45969 41.7329 6.13159 40.8903 6.13159H13.0282C12.1726 6.13159 11.4766 6.82759 11.4766 7.68319V52.5735C11.4766 53.4291 12.1726 54.1251 13.0282 54.1251H42.6879C43.1021 54.1251 43.4379 53.7893 43.4379 53.3751C43.4379 52.9609 43.1021 52.6252 42.6879 52.6252ZM48.8937 14.9493H42.6879C42.6594 14.9493 42.6363 14.9262 42.6363 14.8977V8.69199L48.8937 14.9493Z" fill="#00ADBB"/>
<path d="M53.1699 53.3146L47.559 47.7037C47.1148 47.2589 46.5237 47.014 45.8948 47.014C45.5251 47.014 45.1688 47.0993 44.8475 47.2593L43.4431 45.8549C44.4417 44.6235 45.0416 43.0564 45.0416 41.3511C45.0416 37.4014 41.8283 34.1882 37.8787 34.1882C33.929 34.1882 30.7158 37.4015 30.7158 41.3511C30.7158 45.3007 33.9291 48.514 37.8787 48.514C39.5839 48.514 41.1511 47.9141 42.3825 46.9155L43.787 48.32C43.6269 48.6414 43.5417 48.9977 43.5417 49.3672C43.5417 49.9959 43.7866 50.5868 44.2311 51.031L49.842 56.642C50.2861 57.0867 50.8772 57.3317 51.5062 57.3317C52.1352 57.3317 52.7262 57.0868 53.1699 56.6425C53.6145 56.1981 53.8594 55.6071 53.8594 54.9784C53.8594 54.3497 53.6143 53.7588 53.1699 53.3146ZM32.2157 41.3511C32.2157 38.2286 34.7561 35.6882 37.8786 35.6882C41.0011 35.6882 43.5415 38.2286 43.5415 41.3511C43.5415 44.4736 41.0011 47.014 37.8786 47.014C34.756 47.014 32.2157 44.4736 32.2157 41.3511ZM45.0415 49.3672C45.0415 49.1393 45.1303 48.9252 45.2918 48.7636C45.4526 48.6026 45.6668 48.5139 45.8947 48.5139C46.1227 48.5139 46.3367 48.6026 46.4979 48.7639L47.2201 49.4861L46.0137 50.6925L45.2913 49.9701C45.1302 49.8092 45.0415 49.595 45.0415 49.3672ZM52.1089 55.582C51.9481 55.743 51.734 55.8317 51.506 55.8317C51.278 55.8317 51.064 55.743 50.9028 55.5817L47.0744 51.7532L48.2808 50.5468L52.1094 54.3754C52.2705 54.5364 52.3593 54.7506 52.3593 54.9784C52.3593 55.2062 52.2705 55.4205 52.1089 55.582Z" fill="#00ADBB"/>
<path d="M17.8379 35.688H19.4411C19.8553 35.688 20.1911 35.3522 20.1911 34.938C20.1911 34.5238 19.8553 34.188 19.4411 34.188H17.8379C17.4237 34.188 17.0879 34.5238 17.0879 34.938C17.0879 35.3522 17.4237 35.688 17.8379 35.688Z" fill="#00ADBB"/>
<path d="M17.8379 38.8947H19.4411C19.8553 38.8947 20.1911 38.5589 20.1911 38.1447C20.1911 37.7305 19.8553 37.3947 19.4411 37.3947H17.8379C17.4237 37.3947 17.0879 37.7305 17.0879 38.1447C17.0879 38.5589 17.4237 38.8947 17.8379 38.8947Z" fill="#00ADBB"/>
<path d="M30.612 34.938C30.612 34.5238 30.2762 34.188 29.862 34.188H22.6475C22.2333 34.188 21.8975 34.5238 21.8975 34.938C21.8975 35.3522 22.2333 35.688 22.6475 35.688H29.862C30.2762 35.688 30.612 35.3523 30.612 34.938Z" fill="#00ADBB"/>
<path d="M29.0088 38.1447C29.0088 37.7305 28.673 37.3947 28.2588 37.3947H22.6475C22.2333 37.3947 21.8975 37.7305 21.8975 38.1447C21.8975 38.5589 22.2333 38.8947 22.6475 38.8947H28.2588C28.673 38.8947 29.0088 38.5589 29.0088 38.1447Z" fill="#00ADBB"/>
<path d="M17.8379 45.3073H25.0524C25.4666 45.3073 25.8024 44.9715 25.8024 44.5573C25.8024 44.1431 25.4666 43.8073 25.0524 43.8073H17.8379C17.4237 43.8073 17.0879 44.1431 17.0879 44.5573C17.0879 44.9715 17.4237 45.3073 17.8379 45.3073Z" fill="#00ADBB"/>
<path d="M17.8379 42.1008H19.4411C19.8553 42.1008 20.1911 41.765 20.1911 41.3508C20.1911 40.9366 19.8553 40.6008 19.4411 40.6008H17.8379C17.4237 40.6008 17.0879 40.9366 17.0879 41.3508C17.0879 41.765 17.4237 42.1008 17.8379 42.1008Z" fill="#00ADBB"/>
<path d="M28.2072 41.3508C28.2072 40.9366 27.8714 40.6008 27.4572 40.6008H22.6475C22.2333 40.6008 21.8975 40.9366 21.8975 41.3508C21.8975 41.765 22.2333 42.1008 22.6475 42.1008H27.4572C27.8714 42.1008 28.2072 41.765 28.2072 41.3508Z" fill="#00ADBB"/>
<path d="M28.2585 14.0444C28.6727 14.0444 29.0085 13.7086 29.0085 13.2944C29.0085 12.8802 28.6727 12.5444 28.2585 12.5444H26.6553C26.2411 12.5444 25.9053 12.8802 25.9053 13.2944C25.9053 13.7086 26.2411 14.0444 26.6553 14.0444H28.2585Z" fill="#00ADBB"/>
<path d="M36.2751 23.6639C36.6893 23.6639 37.0251 23.3281 37.0251 22.9139C37.0251 22.4997 36.6893 22.1639 36.2751 22.1639H34.6719C34.2577 22.1639 33.9219 22.4997 33.9219 22.9139C33.9219 23.3281 34.2577 23.6639 34.6719 23.6639H36.2751Z" fill="#00ADBB"/>
<path d="M20.2428 20.4573C20.657 20.4573 20.9928 20.1215 20.9928 19.7073C20.9928 19.2931 20.657 18.9573 20.2428 18.9573H18.6396C18.2254 18.9573 17.8896 19.2931 17.8896 19.7073C17.8896 20.1215 18.2254 20.4573 18.6396 20.4573H20.2428Z" fill="#00ADBB"/>
<path d="M44.2907 19.6559C44.7049 19.6559 45.0407 19.3201 45.0407 18.9059C45.0407 18.4917 44.7049 18.1559 44.2907 18.1559H42.6875C42.2733 18.1559 41.9375 18.4917 41.9375 18.9059C41.9375 19.3201 42.2733 19.6559 42.6875 19.6559H44.2907Z" fill="#00ADBB"/>
</g>
<defs>
<clipPath id="clip0_3100_21840">
<rect width="51.2" height="51.2" fill="white" transform="translate(7.06738 6.13159)"/>
</clipPath>
</defs>
</svg>
