<svg width="65" height="64" viewBox="0 0 65 64" fill="none" xmlns="http://www.w3.org/2000/svg">
<g clip-path="url(#clip0_3100_21851)">
<path d="M56.1101 13.4232L48.738 6.05129C48.275 5.58837 47.6594 5.33337 47.0047 5.33337H15.9661C14.6146 5.33337 13.5149 6.43306 13.5149 7.78462V32.0538H11.7911C9.97905 32.0538 8.50488 33.5281 8.50488 35.34V50.3703C8.50488 52.1823 9.97905 53.6566 11.7911 53.6566H37.6765C39.0282 53.6566 40.1278 52.5569 40.1278 51.2054V39.5153C40.1278 38.1636 39.0281 37.0639 37.6765 37.0639H11.7911C10.8406 37.0639 10.0674 36.2907 10.0674 35.3401C10.0674 34.3896 10.8406 33.6164 11.7911 33.6164H13.5149V34.5055C13.5149 34.9369 13.8647 35.2867 14.2961 35.2867C14.7276 35.2867 15.0774 34.9369 15.0774 34.5055V7.78462C15.0774 7.29452 15.4761 6.89587 15.9661 6.89587H46.0804V14.4647C46.0804 15.356 46.8054 16.0811 47.6966 16.0811H55.2655V56.2155C55.2655 56.7056 54.8667 57.1042 54.3767 57.1042H15.9661C15.476 57.1042 15.0774 56.7056 15.0774 56.2155C15.0774 55.784 14.7276 55.4342 14.2961 55.4342C13.8647 55.4342 13.5149 55.784 13.5149 56.2155C13.5149 57.5671 14.6146 58.6667 15.9661 58.6667H54.3767C55.7284 58.6667 56.828 57.567 56.828 56.2155V15.1565C56.8281 14.5018 56.5731 13.8862 56.1101 13.4232V13.4232ZM11.7911 38.6264H37.6765C38.1666 38.6264 38.5653 39.0251 38.5653 39.5153V51.2055C38.5653 51.6956 38.1665 52.0942 37.6765 52.0942H11.7911C10.8406 52.0942 10.0674 51.3209 10.0674 50.3704V38.137C10.5687 38.4473 11.1594 38.6264 11.7911 38.6264ZM47.6429 14.4647V7.16598L54.9957 14.5186H47.6966C47.667 14.5186 47.6429 14.4944 47.6429 14.4647Z" fill="#00ADBB"/>
<path d="M23.4833 49.4647C23.539 49.4743 23.5842 49.482 24.3312 49.482C24.6917 49.482 25.2157 49.4803 25.9831 49.4759C26.4146 49.4736 26.7624 49.1218 26.76 48.6903C26.7576 48.2587 26.4039 47.9147 25.9744 47.9134C25.4288 47.9164 24.8429 47.9186 24.3965 47.919V41.9506C24.3965 41.5191 24.0467 41.1693 23.6152 41.1693C23.1838 41.1693 22.834 41.5191 22.834 41.9506V48.6946C22.834 49.0753 23.1082 49.4005 23.4833 49.4647V49.4647Z" fill="#00ADBB"/>
<path d="M31.4099 49.4816C32.8021 49.4816 33.9706 48.5956 34.1887 47.3749C34.3522 46.4586 33.9331 45.2606 32.2664 44.6458C31.4269 44.3361 30.646 43.9987 30.4175 43.8985C30.2021 43.731 30.2091 43.4944 30.223 43.3965C30.2419 43.2655 30.336 42.9457 30.8037 42.8048C31.7879 42.5082 32.6936 43.2254 32.7188 43.2456C33.049 43.5199 33.5393 43.4763 33.8158 43.1473C34.0934 42.8169 34.0507 42.3241 33.7204 42.0465C33.6578 41.9939 32.1652 40.7629 30.353 41.3087C29.4448 41.5823 28.8023 42.2973 28.6763 43.1744C28.5584 43.9961 28.9145 44.7864 29.6055 45.2369C29.6401 45.2594 29.6762 45.2792 29.714 45.296C29.753 45.3134 30.6806 45.7263 31.7255 46.1117C32.0361 46.2263 32.7482 46.5521 32.6503 47.1002C32.5784 47.5027 32.0948 47.919 31.4097 47.919C30.7216 47.919 30.0586 47.641 29.6366 47.1752C29.3469 46.8555 28.8528 46.8311 28.533 47.1209C28.2133 47.4106 28.1889 47.9047 28.4787 48.2245C29.1923 49.0118 30.2879 49.4816 31.4099 49.4816V49.4816Z" fill="#00ADBB"/>
<path d="M14.6644 49.3391C14.8012 49.4354 14.9582 49.4817 15.1137 49.4817C15.3592 49.4817 15.6009 49.3662 15.753 49.1502L17.6602 46.4429L19.5645 49.1498C19.7166 49.366 19.9585 49.4817 20.2042 49.4817C20.3595 49.4817 20.5164 49.4355 20.653 49.3394C21.006 49.091 21.0907 48.6037 20.8425 48.2508L18.6162 45.0861L20.508 42.4006C20.7566 42.0479 20.672 41.5605 20.3193 41.3121C19.9666 41.0635 19.4792 41.1481 19.2306 41.5008L17.6612 43.7287L16.0942 41.5011C15.846 41.1482 15.3586 41.0634 15.0057 41.3116C14.6527 41.5599 14.5679 42.0473 14.8162 42.4001L16.7052 45.0854L14.4757 48.2503C14.2271 48.6032 14.3117 49.0905 14.6644 49.3391V49.3391Z" fill="#00ADBB"/>
<path d="M45.9729 20.31C45.9729 19.4187 45.2479 18.6936 44.3567 18.6936H25.9864C25.0951 18.6936 24.3701 19.4187 24.3701 20.31V31.165C24.3701 32.0563 25.0951 32.7813 25.9864 32.7813H44.3566C45.2478 32.7813 45.9728 32.0563 45.9728 31.165V20.31H45.9729ZM32.6127 27.0438V24.4312H37.7303V27.0438H32.6127ZM37.7303 28.6063V31.2189H32.6127V28.6063H37.7303ZM25.9326 24.4313H31.0502V27.0439H25.9326V24.4313ZM32.6127 22.8688V20.2562H37.7303V22.8688H32.6127ZM39.2928 24.4313H44.4104V27.0439H39.2928V24.4313ZM44.4104 20.31V22.8687H39.2928V20.2561H44.3567C44.3862 20.2562 44.4104 20.2803 44.4104 20.31ZM25.9864 20.2562H31.0502V22.8688H25.9326V20.3101C25.9326 20.2803 25.9567 20.2562 25.9864 20.2562ZM25.9326 31.1651V28.6064H31.0502V31.2189H25.9864C25.9567 31.2189 25.9326 31.1948 25.9326 31.1651ZM44.3567 31.2189H39.2928V28.6063H44.4104V31.165C44.4104 31.1948 44.3862 31.2189 44.3567 31.2189Z" fill="#00ADBB"/>
</g>
<defs>
<clipPath id="clip0_3100_21851">
<rect width="53.3333" height="53.3333" fill="white" transform="translate(6 5.33337)"/>
</clipPath>
</defs>
</svg>
