<svg width="64" height="64" viewBox="0 0 64 64" fill="none" xmlns="http://www.w3.org/2000/svg">
<g clip-path="url(#clip0_44_6499)">
<path d="M52.9524 42.3682C52.381 42.3682 52 41.9952 52 41.4358V33.9766C52 33.4171 52.381 33.0442 52.9524 33.0442C53.5238 33.0442 53.9048 33.4171 53.9048 33.9766V41.4358C53.9048 41.9952 53.5238 42.3682 52.9524 42.3682Z" fill="white"/>
<path d="M45.3329 25.585C41.1424 25.585 37.7139 22.2284 37.7139 18.1258C37.7139 14.0233 41.1424 10.6666 45.3329 10.6666C49.5234 10.6666 52.952 14.0233 52.952 18.1258C52.952 22.2284 49.5234 25.585 45.3329 25.585ZM45.3329 12.5314C42.1901 12.5314 39.6186 15.0489 39.6186 18.1258C39.6186 21.2028 42.1901 23.7202 45.3329 23.7202C48.4758 23.7202 51.0472 21.2028 51.0472 18.1258C51.0472 15.0489 48.4758 12.5314 45.3329 12.5314Z" fill="white"/>
<path d="M11.0471 42.3682C10.4757 42.3682 10.0947 41.9952 10.0947 41.4358V33.9766C10.0947 33.4171 10.4757 33.0442 11.0471 33.0442C11.6185 33.0442 11.9995 33.4171 11.9995 33.9766V41.4358C11.9995 41.9952 11.6185 42.3682 11.0471 42.3682Z" fill="white"/>
<path d="M18.6659 25.585C14.4754 25.585 11.0469 22.2284 11.0469 18.1258C11.0469 14.0233 14.4754 10.6666 18.6659 10.6666C22.8564 10.6666 26.285 14.0233 26.285 18.1258C26.285 22.2284 22.8564 25.585 18.6659 25.585ZM18.6659 12.5314C15.5231 12.5314 12.9516 15.0489 12.9516 18.1258C12.9516 21.2028 15.5231 23.7202 18.6659 23.7202C21.8088 23.7202 24.3802 21.2028 24.3802 18.1258C24.3802 15.0489 21.8088 12.5314 18.6659 12.5314Z" fill="white"/>
<path d="M6.28539 42.3682C5.71396 42.3682 5.33301 41.9953 5.33301 41.4358V31.6456C5.33301 29.4079 6.76158 27.4498 8.95206 26.7039L12.6663 25.585C13.0473 25.4918 13.333 25.585 13.6187 25.8647L18.6663 30.8065L23.714 25.8647C23.9997 25.585 24.2854 25.4918 24.6663 25.6783L25.6187 25.958C26.0949 26.1445 26.3806 26.6107 26.2854 27.1701C26.0949 27.6363 25.6187 27.916 25.0473 27.8228L24.6663 27.7295L19.333 32.951C18.9521 33.3239 18.3806 33.3239 17.9997 32.951L12.6663 27.7295L9.52348 28.6619C8.19015 28.9417 7.23777 30.247 7.23777 31.6456V41.4358C7.23777 41.9953 6.85682 42.3682 6.28539 42.3682Z" fill="white"/>
<path d="M57.7141 42.3686C57.1426 42.3686 56.7617 41.9956 56.7617 41.4361V31.6459C56.7617 30.2473 55.8093 28.942 54.476 28.4758L51.3331 27.5434L45.9998 32.7648C45.6188 33.1378 45.0474 33.1378 44.6664 32.7648L39.3331 27.5434L38.9521 27.6366C38.4759 27.8231 37.9045 27.5434 37.714 26.9839C37.5236 26.5177 37.8093 25.9583 38.3807 25.7718L39.3331 25.4921C39.714 25.3989 39.9998 25.4921 40.2855 25.6786L45.3331 30.6203L50.3807 25.6786C50.6664 25.3989 50.9521 25.3056 51.3331 25.3989L55.0474 26.5177C57.2379 27.2637 58.6664 29.2217 58.6664 31.4595V41.4361C58.6664 41.9956 58.2855 42.3686 57.7141 42.3686Z" fill="white"/>
<path d="M44.3803 51.6924C43.8089 51.6924 43.4279 51.3195 43.4279 50.76V40.9698C43.4279 39.5712 42.4755 38.2659 41.1422 37.7997L37.9993 36.8673L32.666 42.0887C32.2851 42.4617 31.7136 42.4617 31.3327 42.0887L25.9993 36.8673L22.8565 37.7997C21.5232 38.2659 20.5708 39.5712 20.5708 40.9698V50.76C20.5708 51.3195 20.1898 51.6924 19.6184 51.6924C19.047 51.6924 18.666 51.3195 18.666 50.76V40.9698C18.666 38.7321 20.0946 36.774 22.2851 36.0281L25.9993 34.9092C26.3803 34.816 26.666 34.9092 26.9517 35.189L31.9993 40.1307L37.047 35.189C37.3327 34.9092 37.6184 34.816 37.9993 34.9092L41.7136 36.0281C43.9041 36.774 45.3327 38.7321 45.3327 40.9698V50.76C45.3327 51.3195 44.9517 51.6924 44.3803 51.6924Z" fill="white"/>
<path d="M39.6184 51.6924C39.047 51.6924 38.666 51.3195 38.666 50.76V43.3008C38.666 42.7414 39.047 42.3684 39.6184 42.3684C40.1898 42.3684 40.5708 42.7414 40.5708 43.3008V50.76C40.5708 51.3195 40.1898 51.6924 39.6184 51.6924Z" fill="white"/>
<path d="M24.3801 51.6924C23.8087 51.6924 23.4277 51.3195 23.4277 50.76V43.3008C23.4277 42.7414 23.8087 42.3684 24.3801 42.3684C24.9515 42.3684 25.3325 42.7414 25.3325 43.3008V50.76C25.3325 51.3195 24.9515 51.6924 24.3801 51.6924Z" fill="white"/>
<path d="M31.9989 34.9093C27.8085 34.9093 24.3799 31.5526 24.3799 27.4501C24.3799 23.3475 27.8085 19.9908 31.9989 19.9908C36.1894 19.9908 39.618 23.3475 39.618 27.4501C39.618 31.5526 36.1894 34.9093 31.9989 34.9093ZM31.9989 21.8556C28.8561 21.8556 26.2846 24.3731 26.2846 27.4501C26.2846 30.527 28.8561 33.0445 31.9989 33.0445C35.1418 33.0445 37.7132 30.527 37.7132 27.4501C37.7132 24.3731 35.1418 21.8556 31.9989 21.8556Z" fill="white"/>
</g>
<defs>
<clipPath id="clip0_44_6499">
<rect width="53.3333" height="41.0256" fill="white" transform="translate(5.33301 10.6666)"/>
</clipPath>
</defs>
</svg>
