<svg width="65" height="64" viewBox="0 0 65 64" fill="none" xmlns="http://www.w3.org/2000/svg">
<g clip-path="url(#clip0_3100_21846)">
<path d="M54.8406 13.8978L47.7634 6.82079C47.3189 6.37639 46.728 6.13159 46.0994 6.13159H16.3024C15.0049 6.13159 13.9492 7.18729 13.9492 8.48479V31.7832H12.2944C10.5548 31.7832 9.13965 33.1985 9.13965 34.938V49.367C9.13965 51.1066 10.5548 52.5219 12.2944 52.5219H41.9541C43.2517 52.5219 44.3073 51.4662 44.3073 50.1687V38.9462C44.3073 37.6486 43.2516 36.5929 41.9541 36.5929H12.2944C11.3819 36.5929 10.6396 35.8506 10.6396 34.9381C10.6396 34.0256 11.3819 33.2833 12.2944 33.2833H13.9492V34.1368C13.9492 34.551 14.285 34.8868 14.6992 34.8868C15.1134 34.8868 15.4492 34.551 15.4492 34.1368V8.48479C15.4492 8.01429 15.832 7.63159 16.3024 7.63159H45.2121V14.8977C45.2121 15.7533 45.9081 16.4494 46.7637 16.4494H54.0298V54.9784C54.0298 55.4489 53.647 55.8316 53.1766 55.8316H16.3024C15.8319 55.8316 15.4492 55.4489 15.4492 54.9784C15.4492 54.5642 15.1134 54.2284 14.6992 54.2284C14.285 54.2284 13.9492 54.5642 13.9492 54.9784C13.9492 56.276 15.0049 57.3316 16.3024 57.3316H53.1766C54.4742 57.3316 55.5298 56.2759 55.5298 54.9784V15.5618C55.5299 14.9333 55.2851 14.3423 54.8406 13.8978ZM12.2944 38.0929H41.9541C42.4246 38.0929 42.8073 38.4757 42.8073 38.9462V50.1688C42.8073 50.6393 42.4245 51.022 41.9541 51.022H12.2944C11.3819 51.022 10.6396 50.2796 10.6396 49.3671V37.6231C11.1209 37.921 11.6879 38.0929 12.2944 38.0929ZM46.7121 14.8977V7.89089L53.7708 14.9494H46.7637C46.7353 14.9494 46.7121 14.9262 46.7121 14.8977Z" fill="#00ADBB"/>
<path d="M25.9219 32.4816H43.5573C43.9715 32.4816 44.3073 32.1458 44.3073 31.7316C44.3073 31.3174 43.9715 30.9816 43.5573 30.9816H25.9219C25.5077 30.9816 25.1719 31.3174 25.1719 31.7316C25.1719 32.1458 25.5077 32.4816 25.9219 32.4816Z" fill="#00ADBB"/>
<path d="M25.9219 28.4735H43.5573C43.9715 28.4735 44.3073 28.1377 44.3073 27.7235C44.3073 27.3093 43.9715 26.9735 43.5573 26.9735H25.9219C25.5077 26.9735 25.1719 27.3093 25.1719 27.7235C25.1719 28.1377 25.5077 28.4735 25.9219 28.4735Z" fill="#00ADBB"/>
<path d="M37.1445 24.4655H43.5574C43.9716 24.4655 44.3074 24.1297 44.3074 23.7155C44.3074 23.3012 43.9716 22.9655 43.5574 22.9655H37.1445C36.7303 22.9655 36.3945 23.3012 36.3945 23.7155C36.3945 24.1296 36.7303 24.4655 37.1445 24.4655Z" fill="#00ADBB"/>
<path d="M37.1445 20.4573H43.5574C43.9716 20.4573 44.3074 20.1216 44.3074 19.7073C44.3074 19.2931 43.9716 18.9573 43.5574 18.9573H37.1445C36.7303 18.9573 36.3945 19.2931 36.3945 19.7073C36.3945 20.1215 36.7303 20.4573 37.1445 20.4573Z" fill="#00ADBB"/>
<path d="M35.8444 48.6428C36.7423 48.6428 37.5479 48.3481 38.1738 47.7906C38.2964 47.6813 38.413 47.5611 38.5203 47.4332C38.7865 47.1158 38.745 46.6428 38.4276 46.3766C38.1102 46.1104 37.6371 46.1519 37.371 46.4693C37.3103 46.5418 37.2447 46.6094 37.1761 46.6705C36.8242 46.9839 36.3761 47.1429 35.8443 47.1429C34.4187 47.1429 33.2589 45.9831 33.2589 44.5574C33.2589 43.1318 34.4187 41.972 35.8443 41.972C36.3625 41.972 36.8622 42.1245 37.2893 42.4131C37.6326 42.6449 38.0988 42.5547 38.3306 42.2115C38.5625 41.8682 38.4723 41.402 38.129 41.1701C37.4529 40.7133 36.6629 40.4719 35.8442 40.4719C33.5915 40.4719 31.7588 42.3046 31.7588 44.5573C31.7588 46.81 33.5916 48.6428 35.8444 48.6428Z" fill="#00ADBB"/>
<path d="M26.316 48.6428C28.5687 48.6428 30.4014 46.81 30.4014 44.5573C30.4014 42.3046 28.5687 40.4719 26.316 40.4719C24.0633 40.4719 22.2305 42.3046 22.2305 44.5573C22.2305 46.81 24.0633 48.6428 26.316 48.6428ZM26.316 41.9718C27.7416 41.9718 28.9014 43.1317 28.9014 44.5572C28.9014 45.9829 27.7416 47.1427 26.316 47.1427C24.8904 47.1427 23.7305 45.9829 23.7305 44.5572C23.7305 43.1317 24.8904 41.9718 26.316 41.9718Z" fill="#00ADBB"/>
<path d="M26.7235 24.4656H32.3348C33.1904 24.4656 33.8864 23.7695 33.8864 22.9139V20.5091C33.8864 19.6535 33.1904 18.9574 32.3348 18.9574H26.7235C25.8679 18.9574 25.1719 19.6535 25.1719 20.5091V22.9139C25.1719 23.7695 25.868 24.4656 26.7235 24.4656ZM26.6719 20.5091C26.6719 20.4806 26.695 20.4574 26.7235 20.4574H32.3348C32.3633 20.4574 32.3864 20.4805 32.3864 20.5091V22.9139C32.3864 22.9424 32.3633 22.9656 32.3348 22.9656H26.7235C26.695 22.9656 26.6719 22.9425 26.6719 22.9139V20.5091Z" fill="#00ADBB"/>
<path d="M14.7641 47.7971C14.7648 47.996 14.8446 48.1866 14.9857 48.3267C15.1262 48.4662 15.3162 48.5444 15.5141 48.5444H15.5169C15.5723 48.5442 16.8792 48.5392 17.4011 48.53C19.3118 48.4966 20.6986 46.826 20.6986 44.5575C20.6986 42.1729 19.3466 40.5707 17.3344 40.5707H15.501C15.3018 40.5707 15.1109 40.6499 14.9702 40.7909C14.8295 40.9318 14.7506 41.1229 14.751 41.3221C14.751 41.3221 14.7557 43.8122 14.7557 44.5503C14.7557 45.4504 14.7641 47.7971 14.7641 47.7971ZM17.3345 42.0708C18.709 42.0708 19.1987 43.3555 19.1987 44.5576C19.1987 46.2437 18.2827 47.0144 17.375 47.0303C17.1203 47.0347 16.6606 47.0383 16.2616 47.0407C16.2591 46.275 16.2557 45.1212 16.2557 44.5505C16.2557 44.0738 16.2537 42.8671 16.2524 42.0708H17.3345Z" fill="#00ADBB"/>
</g>
<defs>
<clipPath id="clip0_3100_21846">
<rect width="51.2" height="51.2" fill="white" transform="translate(6.73438 6.13159)"/>
</clipPath>
</defs>
</svg>
